name N:\Shared_Data\HIL\Data Collection\CoPD-X-MoreData\processed\iteration012\grf0012.mot
datacolumns 19
datarows 44
range 2327.261121 2327.332791
endheader
time	ground_force1_vx	ground_force1_vy	ground_force1_vz	ground_force1_px	ground_force1_py	ground_force1_pz	ground_force2_vx	ground_force2_vy	ground_force2_vz	ground_force2_px	ground_force2_py	ground_force2_pz	ground_torque1_x	ground_torque1_y	ground_torque1_z	ground_torque2_x	ground_torque2_y	ground_torque2_z	
2327.261121	0	0	0	0	0	0	31.90832667	758.2629162	-46.90471107	9.220562266	0	-0.04610622886	0	0	0	0	-10.31146589	0	
2327.262791	0	0	0	0	0	0	31.2664822	757.3217482	-46.77897395	9.220838656	0	-0.04610875367	0	0	0	0	-10.27377612	0	
2327.26446	0	0	0	0	0	0	30.6259351	756.3633066	-46.64477877	9.221125632	0	-0.04610883517	0	0	0	0	-10.23270728	0	
2327.266128	0	0	0	0	0	0	29.98676763	755.3892035	-46.50227978	9.221423151	0	-0.04610647328	0	0	0	0	-10.1882791	0	
2327.267788	0	0	0	0	0	0	29.34906024	754.4010342	-46.35166945	9.221731083	0	-0.04610168248	0	0	0	0	-10.14052681	0	
2327.269461	0	0	0	0	0	0	28.71289115	753.4003731	-46.19317639	9.22204921	0	-0.04609449156	0	0	0	0	-10.08950061	0	
2327.271121	0	0	0	0	0	0	28.07833616	752.3887695	-46.02706298	9.222377228	0	-0.04608494336	0	0	0	0	-10.03526498	0	
2327.272804	0	0	0	0	0	0	27.44546841	751.3677438	-45.853623	9.222714751	0	-0.04607309433	0	0	0	0	-9.977898017	0	
2327.274458	0	0	0	0	0	0	26.81435835	750.3387844	-45.67317903	9.223061318	0	-0.04605901406	0	0	0	0	-9.917490644	0	
2327.276126	0	0	0	0	0	0	26.18507363	749.3033442	-45.4860798	9.22341639	0	-0.04604278471	0	0	0	0	-9.854145857	0	
2327.27779	0	0	0	0	0	0	25.55767925	748.2628379	-45.2926975	9.223779362	0	-0.04602450025	0	0	0	0	-9.787977876	0	
2327.279459	0	0	0	0	0	0	24.93223764	747.218639	-45.09342495	9.224149565	0	-0.0460042658	0	0	0	0	-9.719111284	0	
2327.281125	0	0	0	0	0	0	24.30880887	746.1720779	-44.88867283	9.224526275	0	-0.0459821967	0	0	0	0	-9.647680132	0	
2327.28279	0	0	0	0	0	0	23.68745097	745.1244389	-44.67886686	9.224908718	0	-0.04595841761	0	0	0	0	-9.57382702	0	
2327.284461	0	0	0	0	0	0	23.0682202	744.0769595	-44.46444495	9.225296076	0	-0.04593306158	0	0	0	0	-9.497702164	0	
2327.286124	0	0	0	0	0	0	22.45117142	743.0308279	-44.24585445	9.225687499	0	-0.04590626894	0	0	0	0	-9.419462447	0	
2327.287795	0	0	0	0	0	0	21.83635854	741.9871821	-44.02354939	9.226082109	0	-0.04587818627	0	0	0	0	-9.339270464	0	
2327.289458	0	0	0	0	0	0	21.22383492	740.9471088	-43.79798781	9.22647901	0	-0.04584896525	0	0	0	0	-9.257293567	0	
2327.291126	0	0	0	0	0	0	20.61365384	739.9116425	-43.56962913	9.226877298	0	-0.0458187615	0	0	0	0	-9.173702914	0	
2327.292788	0	0	0	0	0	0	20.00586892	738.8817654	-43.33893168	9.227276065	0	-0.04578773344	0	0	0	0	-9.08867252	0	
2327.294461	0	0	0	0	0	0	19.40053463	737.8584068	-43.10635025	9.227674413	0	-0.04575604105	0	0	0	0	-9.002378328	0	
2327.296129	0	0	0	0	0	0	18.79770667	736.8424433	-42.87233383	9.228071457	0	-0.04572384476	0	0	0	0	-8.914997292	0	
2327.297794	0	0	0	0	0	0	18.1974424	735.8346993	-42.63732345	9.228466339	0	-0.04569130419	0	0	0	0	-8.826706481	0	
2327.299458	0	0	0	0	0	0	17.59980125	734.8359472	-42.40175014	9.228858232	0	-0.0456585771	0	0	0	0	-8.737682204	0	
2327.301124	0	0	0	0	0	0	17.00484504	733.8469084	-42.16603309	9.229246349	0	-0.04562581817	0	0	0	0	-8.648099168	0	
2327.302793	0	0	0	0	0	0	16.41263829	732.8682546	-41.9305779	9.229629951	0	-0.045593178	0	0	0	0	-8.558129658	0	
2327.304458	0	0	0	0	0	0	15.82324843	731.9006087	-41.69577507	9.230008351	0	-0.04556080203	0	0	0	0	-8.467942753	0	
2327.306127	0	0	0	0	0	0	15.23674606	730.9445468	-41.4619986	9.230380926	0	-0.04552882958	0	0	0	0	-8.377703585	0	
2327.307787	0	0	0	0	0	0	14.65320502	730.0005996	-41.22960478	9.230747117	0	-0.04549739297	0	0	0	0	-8.287572624	0	
2327.309456	0	0	0	0	0	0	14.07270247	729.0692544	-40.99893119	9.231106439	0	-0.04546661666	0	0	0	0	-8.19770502	0	
2327.311125	0	0	0	0	0	0	13.49531887	728.1509577	-40.77029576	9.231458482	0	-0.04543661647	0	0	0	0	-8.108249981	0	
2327.312794	0	0	0	0	0	0	12.92113795	727.246117	-40.54399621	9.231802915	0	-0.04540749898	0	0	0	0	-8.019350209	0	
2327.314456	0	0	0	0	0	0	12.35024649	726.3551037	-40.32030942	9.232139491	0	-0.04537936088	0	0	0	0	-7.931141387	0	
2327.316125	0	0	0	0	0	0	11.7827341	725.4782559	-40.09949119	9.23246805	0	-0.04535228855	0	0	0	0	-7.843751726	0	
2327.31779	0	0	0	0	0	0	11.21869294	724.6158808	-39.88177601	9.232788517	0	-0.04532635758	0	0	0	0	-7.75730157	0	
2327.319456	0	0	0	0	0	0	10.65821727	723.7682584	-39.66737706	9.233100903	0	-0.04530163257	0	0	0	0	-7.671903071	0	
2327.32112	0	0	0	0	0	0	10.10140303	722.9356438	-39.45648636	9.233405308	0	-0.04527816686	0	0	0	0	-7.587659931	0	
2327.322788	0	0	0	0	0	0	9.548347206	722.118271	-39.24927504	9.233701919	0	-0.04525600248	0	0	0	0	-7.504667215	0	
2327.324454	0	0	0	0	0	0	8.999147234	721.3163562	-39.04589378	9.233991005	0	-0.04523517012	0	0	0	0	-7.423011233	0	
2327.326125	0	0	0	0	0	0	8.453900258	720.5301008	-38.8464733	9.234272918	0	-0.04521568927	0	0	0	0	-7.342769495	0	
2327.327795	0	0	0	0	0	0	7.912702326	719.7596952	-38.65112509	9.234548087	0	-0.04519756839	0	0	0	0	-7.264010747	0	
2327.329458	0	0	0	0	0	0	7.375647514	719.0053219	-38.45994209	9.234817018	0	-0.04518080518	0	0	0	0	-7.186795063	0	
2327.331132	0	0	0	0	0	0	6.84282699	718.2671595	-38.2729996	9.235080284	0	-0.04516538701	0	0	0	0	-7.111174016	0	
2327.332791	0	0	0	0	0	0	6.314328011	717.5453857	-38.0903562	9.235338522	0	-0.04515129137	0	0	0	0	-7.037190909	0	
